# xmcd CD database file
#
# Track frame offsets:
#	150
#	17253
#	36197
#	57237
#	76958
#	91794
#	107468
#	123652
#	134398
#	153183
#	168754
#	186244
#
# Disc length: 2754 seconds
#
# Revision: 0
# Processed by: cddbd v1.5.1PL0 Copyright (c) Steve Scherf et al.
# Submitted via: CDex 1.51
#
DISCID=870ac00c
DTITLE=Danel Smith Blues Band - Chicken And Egg
DYEAR=2004
DGENRE=Blues
TTITLE0=Bossin' The Blues
TTITLE1=Dean's Boogie
TTITLE2=Friday Night
TTITLE3=Chicken And Egg
TTITLE4=Too Bad
TTITLE5=Hey John
TTITLE6=Boogie Woogie On Swanee River
TTITLE7=Away From Here
TTITLE8=Captain Morgan
TTITLE9=Take A Gamble On Me
TTITLE10=Voodoo King
TTITLE11=Jungle Juice
EXTD=YEAR: 2004
EXTT0=
EXTT1=
EXTT2=
EXTT3=
EXTT4=
EXTT5=
EXTT6=
EXTT7=
EXTT8=
EXTT9=
EXTT10=
EXTT11=
PLAYORDER=
